<svg width="486.538" height="486.538" xmlns="http://www.w3.org/2000/svg" version="1.1" xml:space="preserve">
 <g>
  <title>Layer 1</title>
  <g stroke="#444444" fill="white" stroke-width="0" id="svg_1">
   <g id="svg_2">
    <path stroke="#444444" fill="#898989" d="m365.308,0l-13.923,13.923l67.76,67.76l-287.395,0c-54.452,0 -98.75,44.298 -98.75,98.745l0,61.389l19.692,0l0,-61.389c0,-43.591 35.466,-79.053 79.058,-79.053l287.394,0l-67.76,67.76l13.923,13.923l91.529,-91.529l-91.528,-91.529z" id="svg_3"/>
   </g>
  </g>
  <g stroke-width="0" id="svg_4">
   <g id="svg_5">
    <path fill="#898989" stroke="#444444" d="m433.457,244.716l0,61.389c0,43.591 -35.466,79.058 -79.058,79.058l-287.395,0l67.76,-67.764l-13.923,-13.923l-91.528,91.534l91.529,91.529l13.923,-13.923l-67.76,-67.76l287.394,0c54.452,0 98.75,-44.298 98.75,-98.75l0,-61.389l-19.692,0l0,-0.001z" id="svg_6"/>
   </g>
  </g>
  <g id="svg_7"/>
  <g id="svg_8"/>
  <g id="svg_9"/>
  <g id="svg_10"/>
  <g id="svg_11"/>
  <g id="svg_12"/>
  <g id="svg_13"/>
  <g id="svg_14"/>
  <g id="svg_15"/>
  <g id="svg_16"/>
  <g id="svg_17"/>
  <g id="svg_18"/>
  <g id="svg_19"/>
  <g id="svg_20"/>
  <g id="svg_21"/>
  <g/>
 </g>

</svg>