<svg width="512" height="512" xmlns="http://www.w3.org/2000/svg" data-name="Layer 1">
 <title>zeroVolume</title>

 <g>
  <title>Layer 1</title>
  <path class="cls-1" d="m210.49,421a5.69,5.69 0 0 1 -3.56,-1.24l-112.21,-89.76l-43.52,0a51.26,51.26 0 0 1 -51.2,-51.25l0,-45.51a51.26,51.26 0 0 1 51.2,-51.24l43.52,0l112.21,-89.74a5.69,5.69 0 0 1 9.24,4.44l0,318.59a5.7,5.7 0 0 1 -5.69,5.69l0.01,0.02zm-159.29,-227.58a39.87,39.87 0 0 0 -39.82,39.82l0,45.51a39.87,39.87 0 0 0 39.82,39.83l45.51,0a5.73,5.73 0 0 1 3.56,1.24l104.53,83.63l0,-294.91l-104.53,83.64a5.73,5.73 0 0 1 -3.56,1.24l-45.51,0z" fill="#898989" id="svg_1"/>
  <path class="cls-1" d="m521.8,365.94a5.63,5.63 0 0 1 -3.94,-1.59a5.69,5.69 0 0 1 -0.17,-8a153.16,153.16 0 0 0 0,-212.62a5.69,5.69 0 0 1 8.21,-7.89a164.57,164.57 0 0 1 0,228.4a5.7,5.7 0 0 1 -4.1,1.7z" fill="#898989" id="svg_3"/>
  <path class="cls-1" d="m529.31,422.45a5.68,5.68 0 0 1 -4.07,-9.66a244.92,244.92 0 0 0 0,-341.6a5.68,5.68 0 1 1 8.14,-7.93a256.27,256.27 0 0 1 0,357.47a5.67,5.67 0 0 1 -4.07,1.72z" fill="#898989" id="svg_4"/>
  <g>

   <title>volume-muted-other</title>
   <path fill="#898989" d="m300.00063,333.12805a6.24,6.24 0 0 1 -4.42,-10.66l149.76,-149.75a6.24,6.24 0 0 1 8.83,8.83l-149.76,149.75a6.22,6.22 0 0 1 -4.41,1.83z" class="cls-1"/>
   <path fill="#898989" d="m449.36063,332.38805a6.22,6.22 0 0 1 -4.42,-1.83l-149.4,-149.08a6.24,6.24 0 1 1 8.83,-8.83l149.41,149.08a6.24,6.24 0 0 1 -4.42,10.66z" class="cls-1"/>
  </g>
 </g>
</svg>